# File created by Blade
# Date/Time:  Thu Sep 25 17:14:50 2014
# Frame Rate: 120.000 fps
#------------------------------------------------------
:FULLY-SPECIFIED
:DEGREES
182
root 18.647166 31.768146 0.317459 7.164300 -78.863945 1.076981
Spine -6.975507 2.329734 -0.439718
Head 0.556180 -10.785755 9.255733
LeftShoulder -8.830035 21.502596 16.008452
LeftArm 35.804295 38.252721 -62.618983
LeftForeArm 0.446048 -0.000000 28.854591
LeftHand -27.531197 0.000000 -0.705528
LeftHandThumb1 -26.253704 0.000000 33.147579
RightShoulder -18.679259 9.670595 -23.153524
RightArm -14.334528 -28.767396 99.924625
RightForeArm -6.373414 -0.000000 22.332276
RightHand -1.688292 -0.000000 18.126065
RightHandThumb1 -24.326973 -0.000000 -32.862282
LeftUpLeg -10.251406 -7.405361 -5.396229
LeftLeg 28.896834 -0.000000 -0.000000
LeftFoot -30.494287 13.096537 -19.321902
LeftToeBase -0.446304 -0.000000 0.000000
RightUpLeg -38.687454 0.993494 -9.333198
RightLeg 40.975592 -0.000000 -0.000000
RightFoot -5.380047 -15.357902 -2.427076
RightToeBase -2.720381 -0.000000 0.000000
183
root 18.912942 31.833429 0.315596 8.000762 -80.000119 0.364635
Spine -7.097058 2.602926 -0.218184
Head 0.628945 -10.310745 8.888687
LeftShoulder -8.939075 21.609468 15.845930
LeftArm 35.298345 38.166062 -62.936871
LeftForeArm -0.015827 -0.000000 28.687504
LeftHand -27.146966 -0.000000 -0.630567
LeftHandThumb1 -26.253704 0.000000 33.147579
RightShoulder -18.551361 9.672739 -23.358954
RightArm -14.490604 -29.165008 100.024370
RightForeArm -5.993908 -0.000000 22.386649
RightHand -2.036436 -0.000000 18.206714
RightHandThumb1 -24.326973 -0.000000 -32.862282
LeftUpLeg -10.754351 -6.819486 -5.429353
LeftLeg 28.601685 -0.000000 -0.000000
LeftFoot -30.049667 13.663544 -19.292538
LeftToeBase -0.451848 -0.000000 0.000000
RightUpLeg -38.621387 1.087446 -8.791227
RightLeg 43.660983 -0.000000 -0.000000
RightFoot -6.280152 -15.572945 -1.610202
RightToeBase -2.851021 -0.000000 0.000000
184
root 19.169238 31.894788 0.308150 9.391027 -81.136375 -0.909829
Spine -7.236706 2.920810 0.078442
Head 0.753497 -9.800498 8.455584
LeftShoulder -9.035422 21.802390 15.643449
LeftArm 34.816494 38.050900 -63.217965
LeftForeArm -0.366870 -0.000000 28.638446
LeftHand -27.267017 -0.000000 -0.632009
LeftHandThumb1 -26.253704 0.000000 33.147579
RightShoulder -18.406046 9.706529 -23.597214
RightArm -14.656304 -29.254576 100.136371
RightForeArm -6.200870 -0.000000 22.308217
RightHand -2.072537 -0.000000 18.321245
RightHandThumb1 -24.326973 -0.000000 -32.862282
LeftUpLeg -11.233845 -6.158623 -5.389334
LeftLeg 28.293459 -0.000000 -0.000000
LeftFoot -29.675708 14.214844 -19.214610
LeftToeBase -0.247259 -0.000000 0.000000
RightUpLeg -38.454973 1.271110 -8.243318
RightLeg 46.250397 -0.000000 -0.000000
RightFoot -6.916201 -15.805313 -1.058549
RightToeBase -3.300493 -0.000000 0.000000
185
root 19.424597 31.951757 0.298380 11.157948 -82.200812 -2.554909
Spine -7.376608 3.253358 0.371661
Head 0.866564 -9.353150 8.066278
LeftShoulder -9.121556 21.914559 15.455703
LeftArm 34.388205 38.073431 -63.433526
LeftForeArm -0.704260 -0.000000 28.519841
LeftHand -27.220136 -0.000000 -0.582909
LeftHandThumb1 -26.253704 0.000000 33.147579
RightShoulder -18.304083 9.720559 -23.802145
RightArm -14.810752 -29.371969 100.186422
RightForeArm -6.305084 -0.000000 22.361099
RightHand -1.935444 -0.000000 18.857638
RightHandThumb1 -24.326973 -0.000000 -32.862282
LeftUpLeg -11.722992 -5.653180 -5.336676
LeftLeg 27.997164 -0.000000 -0.000000
LeftFoot -29.343243 14.819573 -19.150330
LeftToeBase -0.098275 -0.000000 0.000000
RightUpLeg -38.188803 1.423479 -7.725818
RightLeg 48.777127 -0.000000 -0.000000
RightFoot -7.519742 -15.967391 -0.696489
RightToeBase -3.065121 -0.000000 0.000000
186
root 19.680317 32.001536 0.282809 13.402674 -83.215523 -4.679974
Spine -7.480738 3.585520 0.631854
Head 0.889379 -8.925095 7.759144
LeftShoulder -9.254515 22.058063 15.295828
LeftArm 34.120860 38.122094 -63.574301
LeftForeArm -0.834533 -0.000000 28.337630
LeftHand -27.307873 -0.000000 -0.887679
LeftHandThumb1 -26.253704 0.000000 33.147579
RightShoulder -18.206255 9.677768 -23.974586
RightArm -14.902498 -29.483344 100.206023
RightForeArm -6.684343 -0.000000 22.450146
RightHand -2.170190 -0.000000 18.631844
RightHandThumb1 -24.326973 -0.000000 -32.862282
LeftUpLeg -12.249593 -5.164066 -5.264352
LeftLeg 27.793324 -0.000000 -0.000000
LeftFoot -29.055374 15.425474 -19.030706
LeftToeBase 0.130980 -0.000000 -0.000000
RightUpLeg -37.859342 1.689376 -7.283211
RightLeg 51.288868 -0.000000 -0.000000
RightFoot -8.038438 -15.995967 -0.410895
RightToeBase -3.114953 -0.000000 0.000000
